<svg xmlns="http://www.w3.org/2000/svg" width="32" height="32" viewBox="0 0 32 32">
  <g fill="none" fill-rule="evenodd">
    <rect width="32" height="32"/>
    <g transform="translate(2 2)">
      <rect width="26" height="26" x="1" y="1" fill="#FFF"/>
      <path fill="#ADB5BD" fill-rule="nonzero" d="M27.326087,28 L0.673913043,28 C0.301421087,28 0,27.6982554 0,27.326087 L0,0.673913043 C0,0.301744565 0.301421087,0 0.673913043,0 L27.326087,0 C27.6985789,0 28,0.301744565 28,0.673913043 L28,27.326087 C28,27.6982554 27.6985789,28 27.326087,28 Z M2,26 L26,26 L26,2 L2,2 L2,26 Z"/>
      <path fill="#72C472" d="M12.5 7L7.5 7C7.223635 7 7 7.223875 7 7.5L7 12.5C7 12.776125 7.223635 13 7.5 13L12.5 13C12.776365 13 13 12.776125 13 12.5L13 7.5C13 7.223875 12.776365 7 12.5 7zM20.5 7L15.5 7C15.223635 7 15 7.223875 15 7.5L15 12.5C15 12.776125 15.223635 13 15.5 13L20.5 13C20.776365 13 21 12.776125 21 12.5L21 7.5C21 7.223875 20.776365 7 20.5 7zM12.5 15L7.5 15C7.223635 15 7 15.223875 7 15.5L7 20.5C7 20.776125 7.223635 21 7.5 21L12.5 21C12.776365 21 13 20.776125 13 20.5L13 15.5C13 15.223875 12.776365 15 12.5 15zM20.5 15L15.5 15C15.223635 15 15 15.223875 15 15.5L15 20.5C15 20.776125 15.223635 21 15.5 21L20.5 21C20.776365 21 21 20.776125 21 20.5L21 15.5C21 15.223875 20.776365 15 20.5 15z"/>
    </g>
  </g>
</svg>
